ModelForces
version=1
nRows=4
nColumns=155
inDegrees=no

This file contains the forces exerted on a model during a simulation.

A force is a generalized force, meaning that it can be either a force (N) or a torque (Nm).

Units are S.I. units (second, meters, Newtons, ...)
Angles are in degrees.

endheader
time	glut_med1_r	glut_med2_r	glut_med3_r	glut_min1_r	glut_min2_r	glut_min3_r	semimem_r	semiten_r	bifemlh_r	bifemsh_r	sar_r	add_long_r	add_brev_r	add_mag1_r	add_mag2_r	add_mag3_r	tfl_r	pect_r	grac_r	glut_max1_r	glut_max2_r	glut_max3_r	iliacus_r	psoas_r	quad_fem_r	gem_r	peri_r	rect_fem_r	vas_med_r	vas_int_r	vas_lat_r	med_gas_r	lat_gas_r	soleus_r	tib_post_r	flex_dig_r	flex_hal_r	tib_ant_r	per_brev_r	per_long_r	per_tert_r	ext_dig_r	ext_hal_r	glut_med1_l	glut_med2_l	glut_med3_l	glut_min1_l	glut_min2_l	glut_min3_l	semimem_l	semiten_l	bifemlh_l	bifemsh_l	sar_l	add_long_l	add_brev_l	add_mag1_l	add_mag2_l	add_mag3_l	tfl_l	pect_l	grac_l	glut_max1_l	glut_max2_l	glut_max3_l	iliacus_l	psoas_l	quad_fem_l	gem_l	peri_l	rect_fem_l	vas_med_l	vas_int_l	vas_lat_l	med_gas_l	lat_gas_l	soleus_l	tib_post_l	flex_dig_l	flex_hal_l	tib_ant_l	per_brev_l	per_long_l	per_tert_l	ext_dig_l	ext_hal_l	ercspn_r	ercspn_l	intobl_r	intobl_l	extobl_r	extobl_l	femur_lat_meniscii_r.femur_lat_r.force.X	femur_lat_meniscii_r.femur_lat_r.force.Y	femur_lat_meniscii_r.femur_lat_r.force.Z	femur_lat_meniscii_r.femur_lat_r.torque.X	femur_lat_meniscii_r.femur_lat_r.torque.Y	femur_lat_meniscii_r.femur_lat_r.torque.Z	femur_lat_meniscii_r.meniscus_lat_r.force.X	femur_lat_meniscii_r.meniscus_lat_r.force.Y	femur_lat_meniscii_r.meniscus_lat_r.force.Z	femur_lat_meniscii_r.meniscus_lat_r.torque.X	femur_lat_meniscii_r.meniscus_lat_r.torque.Y	femur_lat_meniscii_r.meniscus_lat_r.torque.Z	femur_med_meniscii_r.femur_med_r.force.X	femur_med_meniscii_r.femur_med_r.force.Y	femur_med_meniscii_r.femur_med_r.force.Z	femur_med_meniscii_r.femur_med_r.torque.X	femur_med_meniscii_r.femur_med_r.torque.Y	femur_med_meniscii_r.femur_med_r.torque.Z	femur_med_meniscii_r.meniscus_med_r.force.X	femur_med_meniscii_r.meniscus_med_r.force.Y	femur_med_meniscii_r.meniscus_med_r.force.Z	femur_med_meniscii_r.meniscus_med_r.torque.X	femur_med_meniscii_r.meniscus_med_r.torque.Y	femur_med_meniscii_r.meniscus_med_r.torque.Z	femur_med_tibia_r.tibia_upper_r.force.X	femur_med_tibia_r.tibia_upper_r.force.Y	femur_med_tibia_r.tibia_upper_r.force.Z	femur_med_tibia_r.tibia_upper_r.torque.X	femur_med_tibia_r.tibia_upper_r.torque.Y	femur_med_tibia_r.tibia_upper_r.torque.Z	femur_med_tibia_r.femur_med_r.force.X	femur_med_tibia_r.femur_med_r.force.Y	femur_med_tibia_r.femur_med_r.force.Z	femur_med_tibia_r.femur_med_r.torque.X	femur_med_tibia_r.femur_med_r.torque.Y	femur_med_tibia_r.femur_med_r.torque.Z	femur_lat_tibia_r.tibia_upper_r.force.X	femur_lat_tibia_r.tibia_upper_r.force.Y	femur_lat_tibia_r.tibia_upper_r.force.Z	femur_lat_tibia_r.tibia_upper_r.torque.X	femur_lat_tibia_r.tibia_upper_r.torque.Y	femur_lat_tibia_r.tibia_upper_r.torque.Z	femur_lat_tibia_r.femur_lat_r.force.X	femur_lat_tibia_r.femur_lat_r.force.Y	femur_lat_tibia_r.femur_lat_r.force.Z	femur_lat_tibia_r.femur_lat_r.torque.X	femur_lat_tibia_r.femur_lat_r.torque.Y	femur_lat_tibia_r.femur_lat_r.torque.Z	aACL_R	pACL_R	aPCL_R	pPCL_R	aMCL_R	mMCL_R	pMCL_R	aLCL_R	mLCL_R	pLCL_R	aPCL_L	pPCL_L	aMCL_L	aLCL_L
      0.10760850	      8.15576406	     11.37913047	     12.27157633	      5.19162668	      5.94954662	      6.59942534	    116.09419651	    169.13613676	    229.62374376	    365.82585259	    126.15546496	     11.36566548	      8.03580165	      0.00000000	      4.86102402	      8.54739768	      5.04586960	      1.38016004	    100.58988798	      7.35595986	     11.20419103	      8.45603396	     33.18461653	     24.95583472	      7.07071767	      4.58598419	      4.01654682	     38.87755581	      0.00000000	      0.00000000	      0.00000000	     22.55952748	      0.91374173	      0.00000000	      0.00000000	      2.31585027	      0.00987711	     30.29320625	      2.77580530	      4.16235498	      9.65575438	     17.29728807	      5.43655308	      8.15576406	     11.37913047	     12.27157633	      5.19162668	      5.94954662	      6.59942534	      0.00000000	      8.58043566	     14.91869317	     14.30483515	      2.95816033	     11.36566548	      8.03580165	      0.00000000	      4.86102402	      8.54739768	      6.88572566	      1.38016004	      3.06937417	      7.35595986	     11.20419103	      8.45603396	     33.18461653	     24.95583472	      7.07071767	      4.58598419	      4.01654682	     23.58151963	      0.00000000	      0.00000000	      0.00000000	     16.06322303	      8.35526399	     58.06866385	     57.80965172	      7.94867138	      7.34600306	     16.84099006	      9.49590648	     21.83048464	      3.85187046	     11.52389722	      3.89905509	     48.89880335	     48.89880335	     18.57585140	     18.57585140	     35.50182689	     35.50182689	     61.38225946	    287.67746817	     44.08842447	    -25.09188339	      1.60051548	     24.16161372	    -61.38225946	   -287.67746817	    -44.08842447	      8.87301626	     -2.16902258	      2.12867465	    -33.55781113	     66.86604776	      7.97294463	     -1.67486322	      0.79807116	    -13.74194256	     33.55781113	    -66.86604776	     -7.97294463	     -1.22544104	     -0.80245153	      1.57141217	    -92.16021040	   -494.23905545	    109.57846562	    -11.64164162	      2.28002349	      0.52618672	     92.16021040	    494.23905545	   -109.57846562	     54.61762946	     -1.40641708	     39.55875576	    -34.04571420	   -124.01704453	    -31.18890125	      4.23616671	     -1.19424204	      0.12209879	     34.04571420	    124.01704453	     31.18890125	    -15.88487021	      0.81273803	     14.11057409	      8.04813903	    -11.87031017	      0.00000000	     57.58553286	      0.00000000	      0.00000000	    -38.28302901	      0.00000000	      0.00000000	      0.00000000	      0.00000000	      0.00000000	      0.00000001	      0.00000000
      0.10853044	      8.94413907	     11.30909785	     12.19640796	      5.16071702	      5.91546531	      6.56645422	    115.63093423	    168.77528320	    227.44520623	    363.67260561	    126.20646686	     11.29470378	      7.98838676	      0.00000000	      4.84377931	      8.49307108	      5.04659648	      2.76783861	    100.52343034	      7.31088434	     11.13449067	      8.40276240	     33.05310026	     24.80609945	      7.04776057	      4.56444570	      4.18831622	     38.69450122	      0.00000000	      0.00000000	      0.00000000	     24.33329225	      0.86916214	      0.00000000	      0.00000000	      1.95210861	      0.00000000	     30.06894532	      3.05901266	      4.30243199	      4.85594434	     17.26435658	      5.40932795	      8.94413907	     11.30909785	     12.19640796	      5.16071702	      5.91546531	      6.56645422	      0.00000000	      8.52486603	     14.90975790	     14.21781871	      2.94062717	     11.29470378	      7.98838676	      0.00000000	      4.84377931	      8.49307108	      6.85373946	      2.76783861	      3.05088029	      7.31088434	     11.13449067	      8.40276240	     33.05310026	     24.80609945	      7.04776057	      4.56444570	      4.18831622	     23.44784167	      0.00000000	      0.00000000	      0.00000000	     16.39593438	      8.47812352	     58.11206063	     57.70988225	      7.85293358	      7.24377005	     16.81319947	      9.45716903	     21.78956501	      3.82904219	     11.62188762	      3.92983121	     48.60706792	     48.60706792	     18.45758301	     18.45758301	     35.39283096	     35.39283096	     61.20132967	    289.86088794	     43.93348035	    -25.07883387	      1.59340106	     24.05459368	    -61.20132967	   -289.86088794	    -43.93348035	      8.91239961	     -2.16381166	      2.22939263	    -33.23607954	     68.36067048	      8.93283390	     -2.04002191	      0.78865154	    -13.60731595	     33.23607954	    -68.36067048	     -8.93283390	     -1.22664212	     -0.80576173	      1.58409439	    -96.99340631	   -498.25330774	    109.85690626	    -11.71875476	      2.38205218	      0.48049951	     96.99340631	    498.25330774	   -109.85690626	     54.79055899	     -1.49688554	     41.56253968	    -32.24750676	   -116.02329478	    -29.13222849	      3.95019366	     -1.13137511	      0.13323814	     32.24750676	    116.02329478	     29.13222849	    -14.83502334	      0.77117688	     13.35011085	      7.21667563	    -12.48314074	      0.00000000	     59.79370799	      0.00000000	      0.00000000	    -38.69876314	      0.00000000	      0.00000000	      0.00000000	      0.00000000	      0.00000000	      0.00000001	      0.00000000
      0.10945239	      9.60911429	     11.23991231	     12.12202354	      5.13019518	      5.88181619	      6.53320460	    115.13439774	    168.42739970	    225.04106925	    361.23884231	    126.25072866	     11.22464311	      7.94156482	      0.00000000	      4.82546679	      8.43929474	      5.04551749	      3.42386193	    100.43364677	      7.26629696	     11.06566289	      8.35016496	     32.92328702	     24.65829126	      7.02167572	      4.54316763	      4.34869373	     38.51196546	      0.00000000	      0.00000000	      0.00000000	     26.24550279	      0.83458044	      0.00000000	      0.00000000	      1.59889726	      0.00000000	     29.94269459	      3.36670628	      4.46635096	      9.09232414	     17.37801649	      5.38321939	      9.60911429	     11.23991231	     12.12202354	      5.13019518	      5.88181619	      6.53320460	      0.00000000	      8.47000151	     14.89846043	     14.13190215	      2.92331364	     11.22464311	      7.94156482	      0.00000000	      4.82546679	      8.43929474	      6.82202148	      3.42386193	      3.03261937	      7.26629696	     11.06566289	      8.35016496	     32.92328702	     24.65829126	      7.02167572	      4.54316763	      4.34869373	     23.31453915	      0.00000000	      0.00000000	      0.00000000	     16.71186865	      8.59469800	     58.14076355	     57.60849506	      7.75959660	      7.14411588	     16.78257069	      9.41790047	     21.74733444	      3.80649094	     11.71030357	      3.95540709	     48.31899532	     48.31899532	     18.34081327	     18.34081327	     35.28525784	     35.28525784	     65.24788555	    294.56703639	     40.72899830	    -23.83505003	      1.69329955	     25.69549253	    -65.24788555	   -294.56703639	    -40.72899830	      8.89236315	     -2.24400493	      2.22560597	    -31.28368630	     68.66392303	      9.92276636	     -2.43763135	      0.74109255	    -12.79827137	     31.28368630	    -68.66392303	     -9.92276636	     -1.20943520	     -0.77493792	      1.53430263	   -104.18299951	   -504.01062316	    110.41754278	    -11.82962810	      2.51884402	      0.36164982	    104.18299951	    504.01062316	   -110.41754278	     55.10950342	     -1.62353048	     44.56123691	    -31.15628531	   -110.50142199	    -27.45201726	      3.74324605	     -1.09035614	      0.14112130	     31.15628531	    110.50142199	     27.45201726	    -14.00207348	      0.74643576	     12.88636013	      6.83417124	    -12.66287237	     26.02148930	     59.53389753	      0.00000000	      0.00000000	    -40.23629856	      0.00000000	      0.00000000	      0.00000000	      0.00000000	      0.00000000	      0.00000001	      0.00000000
      0.11042452	     10.20109366	     11.16787171	     12.04445007	      5.09842624	      5.84679706	      6.49790233	    114.50821226	    167.95826049	    222.16053025	    357.52147423	    126.14224330	     11.15173125	      7.89282765	      0.00000000	      4.80514919	      8.38318960	      5.03498824	      3.78237342	    100.21134352	      7.21981602	     10.99402276	      8.29542504	     32.78822604	     24.50449538	      6.99146509	      4.52101116	      4.50643594	     38.28019510	      0.00000000	      0.00000000	      0.00000000	     28.33920952	      0.79254374	      0.00000000	      0.00000000	      1.24156856	      0.00000000	     29.61981245	      3.70986248	      4.65599951	      6.93946635	     17.52727436	      5.35811195	     10.20109366	     11.16787171	     12.04445007	      5.09842624	      5.84679706	      6.49790233	      0.00000000	      8.41290372	     14.88404845	     14.04248373	      2.90529230	     11.15173125	      7.89282765	      0.00000000	      4.80514919	      8.38318960	      6.78887180	      3.78237342	      3.01361329	      7.21981602	     10.99402276	      8.29542504	     32.78822604	     24.50449538	      6.99146509	      4.52101116	      4.50643594	     23.17445687	      0.00000000	      0.00000000	      0.00000000	     17.02773719	      8.71111290	     58.15588963	     57.49991910	      7.66386459	      7.04197144	     16.74732865	      9.37596469	     21.70141996	      3.78300961	     11.79249218	      3.97662693	     48.01915476	     48.01915476	     18.21928856	     18.21928856	     35.17334810	     35.17334810	     69.33292915	    304.13736356	     39.52610959	    -23.56389116	      1.77233261	     27.32441332	    -69.33292915	   -304.13736356	    -39.52610959	      9.08997281	     -2.32340165	      2.30460534	    -29.94592744	     70.90999812	     10.58777234	     -2.64861676	      0.70609116	    -12.23786551	     29.94592744	    -70.90999812	    -10.58777234	     -1.25054287	     -0.75232362	      1.51931171	   -116.32090542	   -527.54302741	    115.51711587	    -12.39134155	      2.77342394	      0.22061393	    116.32090542	    527.54302741	   -115.51711587	     57.65177449	     -1.82936080	     49.66609265	    -31.93436237	   -109.26708603	    -26.99493473	      3.68791161	     -1.10891772	      0.12633911	     31.93436237	    109.26708603	     26.99493473	    -13.77879872	      0.76477299	     13.20392971	      6.13397669	    -13.10414165	     25.02490391	     58.25939638	      0.00000000	      0.00000000	      0.00000000	      0.00000000	      0.00000000	      0.00000000	      0.00000000	      0.00000000	      0.00000001	      0.00000000
